<svg id="Layer_1" xmlns="http://www.w3.org/2000/svg" viewBox="0 0 50 20">
    <defs>
        <style>
            .cls-1{fill:#2f302f;}
            .cls-2{fill:#e84b3c;}
            .cls-3{fill:none;stroke:#e84b3c;stroke-miterlimit:10;stroke-width:3px;}
            .cls-2:onclick {fill:#f5d142;}
            .cls-3:hover {stroke:#f5d142;}
        </style>
    </defs>
    <rect class="cls-1" width="50" height="20"/>
    <path class="cls-2" d="M3.49,6.64H5.56v6.07H8.88v1.73H3.49Z"/>
    <path class="cls-2" d="M12.71,10.05H10.43V8.44h4.34v6H12.71Zm-.36-3.62a1.22,1.22,0,0,1,1.32-1.22A1.22,1.22,0,0,1,15,6.43a1.21,1.21,0,0,1-1.32,1.2A1.21,1.21,0,0,1,12.35,6.43Z"/>
    <path class="cls-2" d="M17.51,6.09h2.06v4.49h.05l1.82-2.14h2.24L19.57,13v1.46H17.51Zm2.57,5.81,1.17-1.27,2.57,3.81H21.59Z"/>
    <path class="cls-2" d="M24.54,11.44A3.08,3.08,0,0,1,27.69,8.3a2.69,2.69,0,0,1,2.85,2.9,6.3,6.3,0,0,1-.08.87H26.1V10.72H29l-.29.36c0-.79-.31-1.22-1-1.22s-1.23.5-1.23,1.58S27.09,13,28.19,13a3.51,3.51,0,0,0,1.44-.36l.67,1.22a4.82,4.82,0,0,1-2.4.69A3.08,3.08,0,0,1,24.54,11.44Z"/>
    <polyline id="uparrow" class="cls-3" points="34 10 40 4 46 10"/>
    <polyline class="cls-3" points="34 16 40 10 46 16"/>
</svg>